<svg width="109" height="68" viewBox="0 0 109 68" fill="none" xmlns="http://www.w3.org/2000/svg">
<path d="M1.104 24V21.216H3.312V9.984H1.104V7.2H9.744C10.768 7.2 11.656 7.376 12.408 7.728C13.176 8.064 13.768 8.552 14.184 9.192C14.616 9.816 14.832 10.568 14.832 11.448V11.688C14.832 12.456 14.688 13.088 14.4 13.584C14.112 14.064 13.768 14.44 13.368 14.712C12.984 14.968 12.616 15.152 12.264 15.264V15.696C12.616 15.792 13 15.976 13.416 16.248C13.832 16.504 14.184 16.88 14.472 17.376C14.776 17.872 14.928 18.52 14.928 19.32V19.56C14.928 20.488 14.712 21.288 14.28 21.96C13.848 22.616 13.248 23.12 12.48 23.472C11.728 23.824 10.848 24 9.84 24H1.104ZM6.48 21.12H9.456C10.144 21.12 10.696 20.952 11.112 20.616C11.544 20.28 11.76 19.8 11.76 19.176V18.936C11.76 18.312 11.552 17.832 11.136 17.496C10.72 17.16 10.16 16.992 9.456 16.992H6.48V21.12ZM6.48 14.112H9.408C10.064 14.112 10.6 13.944 11.016 13.608C11.448 13.272 11.664 12.808 11.664 12.216V11.976C11.664 11.368 11.456 10.904 11.04 10.584C10.624 10.248 10.08 10.08 9.408 10.08H6.48V14.112ZM23.2815 24.336C22.0975 24.336 21.0335 24.096 20.0895 23.616C19.1455 23.136 18.4015 22.44 17.8575 21.528C17.3135 20.616 17.0415 19.52 17.0415 18.24V17.856C17.0415 16.576 17.3135 15.48 17.8575 14.568C18.4015 13.656 19.1455 12.96 20.0895 12.48C21.0335 12 22.0975 11.76 23.2815 11.76C24.4655 11.76 25.5295 12 26.4735 12.48C27.4175 12.96 28.1615 13.656 28.7055 14.568C29.2495 15.48 29.5215 16.576 29.5215 17.856V18.24C29.5215 19.52 29.2495 20.616 28.7055 21.528C28.1615 22.44 27.4175 23.136 26.4735 23.616C25.5295 24.096 24.4655 24.336 23.2815 24.336ZM23.2815 21.648C24.2095 21.648 24.9775 21.352 25.5855 20.76C26.1935 20.152 26.4975 19.288 26.4975 18.168V17.928C26.4975 16.808 26.1935 15.952 25.5855 15.36C24.9935 14.752 24.2255 14.448 23.2815 14.448C22.3535 14.448 21.5855 14.752 20.9775 15.36C20.3695 15.952 20.0655 16.808 20.0655 17.928V18.168C20.0655 19.288 20.3695 20.152 20.9775 20.76C21.5855 21.352 22.3535 21.648 23.2815 21.648ZM37.9768 24.336C36.7928 24.336 35.7288 24.096 34.7848 23.616C33.8408 23.136 33.0968 22.44 32.5528 21.528C32.0088 20.616 31.7368 19.52 31.7368 18.24V17.856C31.7368 16.576 32.0088 15.48 32.5528 14.568C33.0968 13.656 33.8408 12.96 34.7848 12.48C35.7288 12 36.7928 11.76 37.9768 11.76C39.1608 11.76 40.2248 12 41.1688 12.48C42.1128 12.96 42.8568 13.656 43.4008 14.568C43.9448 15.48 44.2168 16.576 44.2168 17.856V18.24C44.2168 19.52 43.9448 20.616 43.4008 21.528C42.8568 22.44 42.1128 23.136 41.1688 23.616C40.2248 24.096 39.1608 24.336 37.9768 24.336ZM37.9768 21.648C38.9048 21.648 39.6728 21.352 40.2808 20.76C40.8888 20.152 41.1928 19.288 41.1928 18.168V17.928C41.1928 16.808 40.8888 15.952 40.2808 15.36C39.6888 14.752 38.9208 14.448 37.9768 14.448C37.0488 14.448 36.2808 14.752 35.6728 15.36C35.0648 15.952 34.7608 16.808 34.7608 17.928V18.168C34.7608 19.288 35.0648 20.152 35.6728 20.76C36.2808 21.352 37.0488 21.648 37.9768 21.648ZM47.0081 24V7.2H50.0321V16.488H50.4641L54.4001 12.096H58.3361L52.8401 17.856L58.5281 24H54.6401L50.4641 19.272H50.0321V24H47.0081ZM70.3448 24.336C69.4968 24.336 68.7368 24.192 68.0648 23.904C67.3928 23.6 66.8568 23.168 66.4568 22.608C66.0728 22.032 65.8808 21.336 65.8808 20.52C65.8808 19.704 66.0728 19.024 66.4568 18.48C66.8568 17.92 67.4008 17.504 68.0888 17.232C68.7928 16.944 69.5928 16.8 70.4888 16.8H73.7528V16.128C73.7528 15.568 73.5768 15.112 73.2248 14.76C72.8728 14.392 72.3128 14.208 71.5448 14.208C70.7928 14.208 70.2328 14.384 69.8648 14.736C69.4968 15.072 69.2568 15.512 69.1448 16.056L66.3608 15.12C66.5528 14.512 66.8568 13.96 67.2728 13.464C67.7048 12.952 68.2728 12.544 68.9768 12.24C69.6968 11.92 70.5688 11.76 71.5928 11.76C73.1608 11.76 74.4008 12.152 75.3128 12.936C76.2248 13.72 76.6808 14.856 76.6808 16.344V20.784C76.6808 21.264 76.9048 21.504 77.3528 21.504H78.3128V24H76.2968C75.7048 24 75.2168 23.856 74.8328 23.568C74.4488 23.28 74.2568 22.896 74.2568 22.416V22.392H73.8008C73.7368 22.584 73.5928 22.84 73.3688 23.16C73.1448 23.464 72.7928 23.736 72.3128 23.976C71.8328 24.216 71.1768 24.336 70.3448 24.336ZM70.8728 21.888C71.7208 21.888 72.4088 21.656 72.9368 21.192C73.4808 20.712 73.7528 20.08 73.7528 19.296V19.056H70.7048C70.1448 19.056 69.7048 19.176 69.3848 19.416C69.0648 19.656 68.9048 19.992 68.9048 20.424C68.9048 20.856 69.0728 21.208 69.4088 21.48C69.7448 21.752 70.2328 21.888 70.8728 21.888Z" fill="#282825"/>
<path d="M42.03 60V45.616H45.626V47.501H46.148C46.38 46.9983 46.815 46.5247 47.453 46.08C48.091 45.616 49.0577 45.384 50.353 45.384C51.4743 45.384 52.4507 45.645 53.282 46.167C54.1327 46.6697 54.79 47.3753 55.254 48.284C55.718 49.1733 55.95 50.2173 55.95 51.416V60H52.296V51.706C52.296 50.6233 52.0253 49.8113 51.484 49.27C50.962 48.7287 50.208 48.458 49.222 48.458C48.1007 48.458 47.2307 48.835 46.612 49.589C45.9933 50.3237 45.684 51.358 45.684 52.692V60H42.03ZM65.0136 60C64.0663 60 63.293 59.71 62.6936 59.13C62.1136 58.5307 61.8236 57.738 61.8236 56.752V48.632H58.2276V45.616H61.8236V41.15H65.4776V45.616H69.4216V48.632H65.4776V56.114C65.4776 56.694 65.7483 56.984 66.2896 56.984H69.0736V60H65.0136ZM79.0635 60.406C77.6328 60.406 76.3471 60.116 75.2065 59.536C74.0658 58.956 73.1668 58.115 72.5095 57.013C71.8521 55.911 71.5235 54.5867 71.5235 53.04V52.576C71.5235 51.0293 71.8521 49.705 72.5095 48.603C73.1668 47.501 74.0658 46.66 75.2065 46.08C76.3471 45.5 77.6328 45.21 79.0635 45.21C80.4941 45.21 81.7798 45.5 82.9205 46.08C84.0611 46.66 84.9601 47.501 85.6175 48.603C86.2748 49.705 86.6035 51.0293 86.6035 52.576V53.04C86.6035 54.5867 86.2748 55.911 85.6175 57.013C84.9601 58.115 84.0611 58.956 82.9205 59.536C81.7798 60.116 80.4941 60.406 79.0635 60.406ZM79.0635 57.158C80.1848 57.158 81.1128 56.8003 81.8475 56.085C82.5821 55.3503 82.9495 54.3063 82.9495 52.953V52.663C82.9495 51.3097 82.5821 50.2753 81.8475 49.56C81.1321 48.8253 80.2041 48.458 79.0635 48.458C77.9421 48.458 77.0141 48.8253 76.2795 49.56C75.5448 50.2753 75.1775 51.3097 75.1775 52.663V52.953C75.1775 54.3063 75.5448 55.3503 76.2795 56.085C77.0141 56.8003 77.9421 57.158 79.0635 57.158ZM89.9763 60V45.616H93.5723V47.24H94.0943C94.307 46.66 94.655 46.2347 95.1383 45.964C95.641 45.6933 96.221 45.558 96.8783 45.558H98.6183V48.806H96.8203C95.8923 48.806 95.1286 49.0573 94.5293 49.56C93.93 50.0433 93.6303 50.7973 93.6303 51.822V60H89.9763Z" fill="#282825"/>
<path d="M103.765 60.406C102.992 60.406 102.335 60.1547 101.793 59.652C101.271 59.13 101.01 58.463 101.01 57.651C101.01 56.839 101.271 56.1817 101.793 55.679C102.335 55.157 102.992 54.896 103.765 54.896C104.558 54.896 105.215 55.157 105.737 55.679C106.259 56.1817 106.52 56.839 106.52 57.651C106.52 58.463 106.259 59.13 105.737 59.652C105.215 60.1547 104.558 60.406 103.765 60.406Z" fill="#FC75FF"/>
<path d="M1.914 60V39.7H9.019L12.528 57.39H13.05L16.559 39.7H23.664V60H19.952V42.513H19.43L15.95 60H9.628L6.148 42.513H5.626V60H1.914Z" fill="#282825"/>
<line x1="26" y1="42" x2="38" y2="42" stroke="#FC75FF" stroke-width="4"/>
<line x1="26" y1="50" x2="38" y2="50" stroke="#FC75FF" stroke-width="4"/>
<line x1="26" y1="58" x2="38" y2="58" stroke="#FC75FF" stroke-width="4"/>
</svg>
