<svg width="123" height="96" viewBox="0 0 123 96" fill="none" xmlns="http://www.w3.org/2000/svg">
<path d="M42.03 88V73.616H45.626V75.501H46.148C46.38 74.9983 46.815 74.5247 47.453 74.08C48.091 73.616 49.0577 73.384 50.353 73.384C51.4743 73.384 52.4507 73.645 53.282 74.167C54.1327 74.6697 54.79 75.3753 55.254 76.284C55.718 77.1733 55.95 78.2173 55.95 79.416V88H52.296V79.706C52.296 78.6233 52.0253 77.8113 51.484 77.27C50.962 76.7287 50.208 76.458 49.222 76.458C48.1007 76.458 47.2307 76.835 46.612 77.589C45.9933 78.3237 45.684 79.358 45.684 80.692V88H42.03ZM65.0136 88C64.0663 88 63.293 87.71 62.6936 87.13C62.1136 86.5307 61.8236 85.738 61.8236 84.752V76.632H58.2276V73.616H61.8236V69.15H65.4776V73.616H69.4216V76.632H65.4776V84.114C65.4776 84.694 65.7483 84.984 66.2896 84.984H69.0736V88H65.0136ZM79.0635 88.406C77.6328 88.406 76.3471 88.116 75.2065 87.536C74.0658 86.956 73.1668 86.115 72.5095 85.013C71.8521 83.911 71.5235 82.5867 71.5235 81.04V80.576C71.5235 79.0293 71.8521 77.705 72.5095 76.603C73.1668 75.501 74.0658 74.66 75.2065 74.08C76.3471 73.5 77.6328 73.21 79.0635 73.21C80.4941 73.21 81.7798 73.5 82.9205 74.08C84.0611 74.66 84.9601 75.501 85.6175 76.603C86.2748 77.705 86.6035 79.0293 86.6035 80.576V81.04C86.6035 82.5867 86.2748 83.911 85.6175 85.013C84.9601 86.115 84.0611 86.956 82.9205 87.536C81.7798 88.116 80.4941 88.406 79.0635 88.406ZM79.0635 85.158C80.1848 85.158 81.1128 84.8003 81.8475 84.085C82.5821 83.3503 82.9495 82.3063 82.9495 80.953V80.663C82.9495 79.3097 82.5821 78.2753 81.8475 77.56C81.1321 76.8253 80.2041 76.458 79.0635 76.458C77.9421 76.458 77.0141 76.8253 76.2795 77.56C75.5448 78.2753 75.1775 79.3097 75.1775 80.663V80.953C75.1775 82.3063 75.5448 83.3503 76.2795 84.085C77.0141 84.8003 77.9421 85.158 79.0635 85.158ZM89.9763 88V73.616H93.5723V75.24H94.0943C94.307 74.66 94.655 74.2347 95.1383 73.964C95.641 73.6933 96.221 73.558 96.8783 73.558H98.6183V76.806H96.8203C95.8923 76.806 95.1286 77.0573 94.5293 77.56C93.93 78.0433 93.6303 78.7973 93.6303 79.822V88H89.9763ZM107.108 88.406C105.233 88.406 103.696 88 102.497 87.188C101.299 86.376 100.574 85.216 100.322 83.708L103.686 82.838C103.822 83.5147 104.044 84.0463 104.353 84.433C104.682 84.8197 105.078 85.1 105.542 85.274C106.026 85.4287 106.548 85.506 107.108 85.506C107.959 85.506 108.587 85.361 108.993 85.071C109.399 84.7617 109.602 84.3847 109.602 83.94C109.602 83.4953 109.409 83.157 109.022 82.925C108.636 82.6737 108.017 82.4707 107.166 82.316L106.354 82.171C105.349 81.9777 104.431 81.7167 103.599 81.388C102.768 81.04 102.101 80.5663 101.598 79.967C101.096 79.3677 100.844 78.5943 100.844 77.647C100.844 76.2163 101.366 75.124 102.41 74.37C103.454 73.5967 104.827 73.21 106.528 73.21C108.133 73.21 109.467 73.5677 110.53 74.283C111.594 74.9983 112.29 75.936 112.618 77.096L109.225 78.14C109.071 77.4053 108.752 76.8833 108.268 76.574C107.804 76.2647 107.224 76.11 106.528 76.11C105.832 76.11 105.301 76.2357 104.933 76.487C104.566 76.719 104.382 77.0477 104.382 77.473C104.382 77.937 104.576 78.285 104.962 78.517C105.349 78.7297 105.871 78.894 106.528 79.01L107.34 79.155C108.423 79.3483 109.399 79.6093 110.269 79.938C111.159 80.2473 111.855 80.7017 112.357 81.301C112.879 81.881 113.14 82.6737 113.14 83.679C113.14 85.187 112.589 86.3567 111.487 87.188C110.405 88 108.945 88.406 107.108 88.406Z" fill="#282825"/>
<path d="M118.634 88.406C117.86 88.406 117.203 88.1547 116.662 87.652C116.14 87.13 115.879 86.463 115.879 85.651C115.879 84.839 116.14 84.1817 116.662 83.679C117.203 83.157 117.86 82.896 118.634 82.896C119.426 82.896 120.084 83.157 120.606 83.679C121.128 84.1817 121.389 84.839 121.389 85.651C121.389 86.463 121.128 87.13 120.606 87.652C120.084 88.1547 119.426 88.406 118.634 88.406Z" fill="#FC75FF"/>
<path d="M1.914 88V67.7H9.019L12.528 85.39H13.05L16.559 67.7H23.664V88H19.952V70.513H19.43L15.95 88H9.628L6.148 70.513H5.626V88H1.914Z" fill="#282825"/>
<line x1="26" y1="70" x2="38" y2="70" stroke="#FC75FF" stroke-width="4"/>
<line x1="26" y1="78" x2="38" y2="78" stroke="#FC75FF" stroke-width="4"/>
<line x1="26" y1="86" x2="38" y2="86" stroke="#FC75FF" stroke-width="4"/>
<path d="M1.104 55V52.216H3.312V40.984H1.104V38.2H8.016C10.272 38.2 11.984 38.776 13.152 39.928C14.336 41.064 14.928 42.76 14.928 45.016V48.184C14.928 50.44 14.336 52.144 13.152 53.296C11.984 54.432 10.272 55 8.016 55H1.104ZM6.48 52.12H8.064C9.344 52.12 10.28 51.784 10.872 51.112C11.464 50.44 11.76 49.496 11.76 48.28V44.92C11.76 43.688 11.464 42.744 10.872 42.088C10.28 41.416 9.344 41.08 8.064 41.08H6.48V52.12ZM23.3284 55.336C22.1444 55.336 21.0804 55.096 20.1364 54.616C19.1924 54.136 18.4484 53.44 17.9044 52.528C17.3604 51.616 17.0884 50.52 17.0884 49.24V48.856C17.0884 47.576 17.3604 46.48 17.9044 45.568C18.4484 44.656 19.1924 43.96 20.1364 43.48C21.0804 43 22.1444 42.76 23.3284 42.76C24.5124 42.76 25.5764 43 26.5204 43.48C27.4644 43.96 28.2084 44.656 28.7524 45.568C29.2964 46.48 29.5684 47.576 29.5684 48.856V49.24C29.5684 50.52 29.2964 51.616 28.7524 52.528C28.2084 53.44 27.4644 54.136 26.5204 54.616C25.5764 55.096 24.5124 55.336 23.3284 55.336ZM23.3284 52.648C24.2564 52.648 25.0244 52.352 25.6324 51.76C26.2404 51.152 26.5444 50.288 26.5444 49.168V48.928C26.5444 47.808 26.2404 46.952 25.6324 46.36C25.0404 45.752 24.2724 45.448 23.3284 45.448C22.4004 45.448 21.6324 45.752 21.0244 46.36C20.4164 46.952 20.1124 47.808 20.1124 48.928V49.168C20.1124 50.288 20.4164 51.152 21.0244 51.76C21.6324 52.352 22.4004 52.648 23.3284 52.648ZM30.1517 59.8V57.208H31.7357C32.1837 57.208 32.4077 56.968 32.4077 56.488V43.096H35.4317V57.112C35.4317 57.928 35.1917 58.576 34.7117 59.056C34.2317 59.552 33.5917 59.8 32.7917 59.8H30.1517ZM33.9197 41.704C33.3757 41.704 32.9117 41.528 32.5277 41.176C32.1597 40.824 31.9757 40.36 31.9757 39.784C31.9757 39.208 32.1597 38.744 32.5277 38.392C32.9117 38.04 33.3757 37.864 33.9197 37.864C34.4797 37.864 34.9437 38.04 35.3117 38.392C35.6797 38.744 35.8637 39.208 35.8637 39.784C35.8637 40.36 35.6797 40.824 35.3117 41.176C34.9437 41.528 34.4797 41.704 33.9197 41.704ZM44.4456 55.336C43.2616 55.336 42.1976 55.096 41.2536 54.616C40.3096 54.136 39.5656 53.44 39.0216 52.528C38.4776 51.616 38.2056 50.52 38.2056 49.24V48.856C38.2056 47.576 38.4776 46.48 39.0216 45.568C39.5656 44.656 40.3096 43.96 41.2536 43.48C42.1976 43 43.2616 42.76 44.4456 42.76C45.6296 42.76 46.6936 43 47.6376 43.48C48.5816 43.96 49.3256 44.656 49.8696 45.568C50.4136 46.48 50.6856 47.576 50.6856 48.856V49.24C50.6856 50.52 50.4136 51.616 49.8696 52.528C49.3256 53.44 48.5816 54.136 47.6376 54.616C46.6936 55.096 45.6296 55.336 44.4456 55.336ZM44.4456 52.648C45.3736 52.648 46.1416 52.352 46.7496 51.76C47.3576 51.152 47.6616 50.288 47.6616 49.168V48.928C47.6616 47.808 47.3576 46.952 46.7496 46.36C46.1576 45.752 45.3896 45.448 44.4456 45.448C43.5176 45.448 42.7496 45.752 42.1416 46.36C41.5336 46.952 41.2296 47.808 41.2296 48.928V49.168C41.2296 50.288 41.5336 51.152 42.1416 51.76C42.7496 52.352 43.5176 52.648 44.4456 52.648Z" fill="#282825"/>
<g clip-path="url(#clip0_1080_683)">
<path d="M88.9984 53.8141C89.4479 54.4605 89.1552 54.9878 88.6985 55.5176C83.7223 54.9974 78.7186 54.4744 73.6418 53.8844C72.6368 53.1442 71.705 52.471 70.773 51.7979C68.1802 49.9253 65.9174 47.7169 63.9368 45.2033C61.7759 42.4608 60.27 39.3651 58.9768 36.1515C59.2882 36.0986 59.5473 36.029 59.7982 36.0515C61.2909 36.1854 62.7799 36.3615 64.2734 36.4843C67.6246 36.7599 70.9766 37.026 74.3302 37.2704C77.4528 37.4981 80.5766 37.7137 83.7025 37.8888C84.5847 37.9382 85.1265 38.2666 85.2779 39.2216C85.2862 39.4966 85.2674 39.71 85.3099 39.9103C85.9372 42.8659 86.5747 45.8193 87.2053 48.7742C87.4529 49.9342 87.6895 51.0966 87.9364 52.3175C88.0823 52.8211 88.2227 53.2649 88.3631 53.7088C88.4327 53.6864 88.5023 53.6641 88.5718 53.6417C88.46 53.1803 88.3482 52.719 88.2164 52.2088C88.1965 51.9716 88.1965 51.7833 88.1965 51.595C88.2354 51.5971 88.2744 51.5992 88.3133 51.6012C88.5417 52.3389 88.7701 53.0765 88.9984 53.8141ZM75.3771 46.4864C75.6767 45.9628 75.7194 45.4561 75.1947 45.0548C74.8952 44.8258 74.5471 44.6603 74.1091 44.419C73.9459 44.3428 73.7896 44.2407 73.6183 44.1949C72.7396 43.9601 71.7107 44.4056 71.3991 45.1422C71.0769 45.9038 71.408 46.8808 72.3365 47.2241C73.1021 47.5072 73.9869 47.4679 74.9348 47.5752C75.2685 47.355 75.6021 47.1349 75.9358 46.9147C75.9049 46.8481 75.8741 46.7814 75.8432 46.7148C75.6767 46.6776 75.5102 46.6403 75.3771 46.4864Z" fill="#BDBDBD"/>
<path d="M92.3092 29.3344C92.1138 29.8197 91.9184 30.3051 91.6478 30.8356C91.4498 30.8313 91.3269 30.7818 91.2039 30.6701C90.9523 30.0747 91.1303 29.3341 90.4343 29.0159C90.4376 27.0903 89.1987 25.9434 87.7828 24.9859C85.7345 23.6008 83.3927 22.887 80.9849 22.492C79.2098 22.2007 77.3939 22.1578 75.501 21.9528C75.167 21.3521 74.8405 21.1082 74.1838 21.3273C73.6556 21.5035 73.2723 21.2384 73.2842 20.5536C73.0824 20.5055 72.8228 20.4421 72.6559 20.5388C71.3537 21.2937 70.5006 22.4759 69.7169 23.7173C69.0957 23.6165 69.0241 23.3759 69.4894 22.6427C69.8686 21.9299 70.2112 21.2398 70.4361 20.5133C71.2666 17.8305 72.8238 15.6682 75.0084 13.9308C75.1809 13.7937 75.2922 13.5796 75.432 13.4012C75.432 13.4012 75.4409 13.4061 75.4692 13.4708C75.9258 13.2353 76.3541 12.9352 76.7761 12.6329C76.7698 12.6306 76.7568 12.6344 76.7568 12.6344C76.7568 12.6344 76.7625 12.619 76.7516 12.6792C76.8851 12.7287 77.0294 12.7181 77.1738 12.7075C77.0082 13.2966 76.9274 13.9273 76.662 14.4673C75.6719 16.482 75.595 18.5759 76.1055 20.7428C76.1915 19.7491 76.2776 18.7553 76.4225 17.6779C76.9296 15.6122 77.6142 13.7341 78.8723 12.1034C78.9182 12.0439 78.8733 11.9144 78.8707 11.8175C79.3961 11.7797 79.9232 11.6929 80.4464 11.7125C82.5332 11.7908 84.5648 12.1424 86.4294 13.1429C86.9018 13.3963 87.3193 13.7521 87.7694 14.1792C87.6712 15.4938 87.5171 16.6882 87.4725 17.8867C87.4189 19.326 87.3268 19.4745 85.8838 19.4943C85.346 19.5017 84.9661 19.6365 84.9118 20.241C84.6871 20.1909 84.5132 20.1579 84.3222 20.0923C84.2509 20.0617 84.1968 20.0638 84.1426 20.0659C84.2087 20.085 84.2747 20.1041 84.3701 20.1664C84.8431 20.5109 85.3185 20.7754 85.7215 21.1237C86.1302 21.4768 86.4675 21.9127 86.7864 22.2899C85.6885 21.5437 84.5511 21.1974 83.1983 21.4226C83.8265 21.6514 84.3812 21.8519 84.9347 22.0554C85.6112 22.3041 86.2869 22.5553 86.9838 22.8357C87.0363 22.9046 87.0739 22.936 87.13 23.0084C87.2475 23.1231 87.3524 23.1898 87.4803 23.3029C88.3903 24.1871 89.2969 25.0054 90.1538 25.8728C90.4621 26.1849 90.6508 26.6152 90.8931 26.9897C90.8922 26.9878 90.8894 26.9848 90.8887 27.038C90.8889 27.1622 90.8899 27.2331 90.9154 27.3513C91.2773 28.1053 91.8752 28.3726 92.6189 28.394C92.5958 28.5285 92.5727 28.663 92.4595 28.8368C92.3493 29.0288 92.3293 29.1816 92.3092 29.3344ZM73.7002 20.1762C73.6874 20.281 73.6746 20.3857 73.6618 20.4905C73.7463 20.4763 73.8307 20.4621 73.9152 20.4479C73.8753 20.3485 73.8353 20.2492 73.7002 20.1762Z" fill="#323232"/>
<path d="M93.0759 55.6918C93.0767 55.9516 93.0781 56.2115 93.0782 56.4713C93.0791 58.0026 93.6404 58.6185 95.1594 58.6438C95.9583 58.6571 96.7585 58.5491 97.5589 58.5147C98.2331 58.4858 98.6169 58.1659 98.7063 57.4876C98.7256 57.3409 98.8134 57.2032 98.8974 56.9917C100.278 57.16 101.649 57.3272 103.021 57.4945C103.035 57.5749 103.049 57.6554 103.063 57.7359C102.918 57.8534 102.792 58.0208 102.627 58.0806C101.272 58.5706 99.9347 59.1364 98.5432 59.4838C97.5637 59.7283 96.5056 59.7494 95.4871 59.7191C94.532 59.6906 93.6671 59.3166 93.1615 58.31C92.5006 58.639 91.8738 58.9351 91.2618 59.2592C90.1485 59.8489 88.9989 60.0123 87.7446 59.7882C86.8346 59.6257 85.8909 59.655 84.9629 59.5883C82.0787 59.381 79.1949 59.1689 76.311 58.9583C74.1991 58.804 72.085 58.6742 69.9759 58.4881C67.4079 58.2616 64.8456 57.9719 62.278 57.7399C60.7089 57.5982 59.1343 57.5174 57.5627 57.4015C56.9453 57.356 56.3267 57.3084 55.7144 57.2214C55.5177 57.1935 55.3394 57.0363 55.1527 56.9382C55.1577 56.8582 55.1627 56.7782 55.1676 56.6982C56.1015 56.4695 57.0344 56.2373 57.9697 56.0144C58.2452 55.9488 58.5252 55.8925 58.8065 55.8621C59.2836 55.8107 59.6493 55.8863 60.0042 56.3405C60.8285 57.3955 62.0738 57.2956 63.2267 57.2069C64.4613 57.1119 65.6411 56.835 66.751 56.1472C67.3039 55.8046 68.1707 56.0105 68.8635 55.8389C69.4764 55.687 70.2061 55.503 70.5986 55.0727C71.3592 54.2387 72.2381 54.4142 73.1151 54.4897C74.9672 54.6492 76.8142 54.8693 78.6628 55.0686C80.8968 55.3094 83.126 55.6105 85.3654 55.7787C86.9563 55.8981 88.5661 55.9246 90.1558 55.8178C90.7278 55.7794 91.2655 55.2305 91.8997 54.9558C92.3457 55.2287 92.7108 55.4602 93.0759 55.6918Z" fill="#2A2A2A"/>
<path d="M77.169 30.6958C77.8178 30.6732 78.4823 30.549 79.1128 30.6461C81.4749 31.01 83.7293 30.727 85.8624 29.6519C87.0205 29.0681 88.1414 28.4103 89.2788 27.7861C90.0095 29.0663 89.7427 30.4607 88.7469 31.4385C86.2511 33.8889 83.1478 35.0718 79.8354 35.8439C79.1861 35.9953 78.5337 36.0013 77.8804 35.5202C77.5873 35.3 77.3706 35.131 77.1568 34.9018C77.0962 34.6786 77.0379 34.5134 76.9684 34.3532C76.425 33.1001 76.208 31.8659 77.169 30.6958Z" fill="#080909"/>
<path d="M72.4877 25.1844C75.7826 25.7042 79.0455 25.5562 82.2824 24.7436C82.959 24.5738 83.651 24.4459 84.3437 24.3636C85.4379 24.2337 86.4684 24.4364 87.3164 25.194C87.9669 25.7753 88.5849 26.393 89.2149 26.9921C85.9447 29.3514 82.521 30.6766 78.502 30.029C77.6789 29.8964 76.7798 30.2347 75.8422 30.2897C75.764 30.1794 75.7593 30.1352 75.779 30.0393C75.8485 29.2837 75.8936 28.5798 75.9431 27.807C75.9165 27.8171 76.0467 27.7674 76.1496 27.7282C75.645 27.459 75.1657 27.2262 74.7095 26.9547C73.9605 26.509 73.2264 26.0381 72.4832 25.5123C72.4828 25.3593 72.4852 25.2718 72.4877 25.1844ZM81.9198 26.9809C81.3185 27.6514 81.512 28.6749 82.3565 29.2911C83 29.7607 83.7636 29.7419 84.358 29.2419C84.9588 28.7366 85.1219 27.7336 84.75 26.9553C84.374 26.1683 83.7422 26.42 83.142 26.5407C83.0176 26.5658 82.901 26.6301 82.672 26.6709C82.4555 26.7516 82.2389 26.8322 81.9198 26.9809ZM81.566 26.3189C82.1484 25.9082 82.7309 25.4975 83.3216 25.081C83.214 25.0521 83.0517 24.9837 82.8842 24.9674C81.9162 24.873 81.2264 25.4184 80.5413 25.9888C80.042 26.4045 79.519 26.7917 79.0036 27.1941C79.4667 27.5759 79.9837 27.5373 80.4981 27.1503C80.829 26.9014 81.1501 26.6397 81.566 26.3189Z" fill="#F7F7F7"/>
<path d="M58.9208 36.1772C60.27 39.3651 61.7759 42.4608 63.9368 45.2033C65.9174 47.7169 68.1802 49.9253 70.773 51.7979C71.705 52.4709 72.6368 53.1442 73.5771 53.8679C70.8975 53.6773 68.208 53.4512 65.5224 53.1855C64.7481 53.1089 64.2932 52.5824 64.0394 51.864C63.1929 49.4686 62.3242 47.0809 61.4926 44.6804C60.5257 41.8891 59.5888 39.0874 58.6925 36.2208C58.8043 36.16 58.8626 36.1686 58.9208 36.1772Z" fill="#A2A2A2"/>
<path d="M92.6596 28.3517C91.8752 28.3726 91.2773 28.1053 90.9502 27.3274C90.9367 27.1659 90.9131 27.0753 90.8894 26.9848C90.8894 26.9848 90.8922 26.9879 90.8873 26.9365C90.8323 26.5949 90.471 26.2914 90.9451 26.0157C91.0054 25.9806 90.9788 25.6688 90.8995 25.5443C90.6378 25.1335 90.3766 24.7076 90.0382 24.3631C88.5048 22.8019 87.0152 21.1796 84.9626 20.2581C84.9662 19.6365 85.3461 19.5017 85.8839 19.4943C87.3268 19.4745 87.4189 19.326 87.4725 17.8867C87.5171 16.6882 87.6712 15.4938 87.7822 14.23C88.8949 14.6087 89.6545 15.4481 90.2818 16.4176C91.773 18.7223 92.4887 21.2542 92.4651 24C92.4627 24.2792 92.4981 24.5824 92.6075 24.8349C93.1064 25.9865 93.1002 27.1398 92.6596 28.3517Z" fill="#303030"/>
<path d="M96.0373 40.2514C96.0404 40.7192 96.0552 41.1873 96.0442 41.6547C96.0212 42.6244 95.6544 43.4083 94.7996 43.9314C93.7533 44.5716 92.7146 45.2244 91.4968 45.9809C91.8596 44.0846 91.6283 42.5454 90.5132 41.2827C90.0325 40.7384 89.3316 40.3886 88.7524 39.8578C89.3275 39.5624 89.8809 39.3598 90.4342 39.1571C91.0093 39.2124 91.5843 39.2677 92.2671 39.3671C93.5957 39.6913 94.8165 39.9714 96.0373 40.2514Z" fill="#2E2E2E"/>
<path d="M96.2808 43.1145C96.3047 43.0979 96.3286 43.0814 96.462 43.0806C97.5786 42.9269 98.5844 42.7485 99.5939 42.5942C99.8652 42.5527 100.148 42.5847 100.425 42.583C102.264 42.7768 103.522 46.1787 102.486 47.5774C100.641 45.9599 98.6435 46.4835 96.4468 47.2784C96.8343 46.3971 97.1673 45.6397 97.5003 44.8823C97.4508 44.8373 97.4014 44.7923 97.3519 44.7472C97.0476 45.0991 96.7434 45.451 96.345 45.8251C96.2175 45.7202 96.1548 45.5929 96.1558 45.466C96.1602 44.8707 96.182 44.2756 96.1977 43.6803C96.2061 43.5439 96.2146 43.4075 96.2453 43.2017C96.2676 43.1323 96.2808 43.1145 96.2808 43.1145Z" fill="#2E2E2E"/>
<path d="M99.1167 54.5672C98.7309 55.5878 98.3955 56.5663 97.9935 57.5166C97.8996 57.7384 97.5977 57.9752 97.3602 58.0141C96.6556 58.1297 95.9354 58.1499 95.1152 58.2159C95.3142 56.5232 95.665 55.009 96.3345 53.578C96.5756 53.0629 96.8495 52.5613 97.1367 52.07C97.8762 50.8051 98.1234 50.7114 99.5086 51.1073C100.521 51.3968 100.555 51.4102 100.18 52.3477C99.8838 53.0898 99.4922 53.7938 99.1167 54.5672Z" fill="#414141"/>
<path d="M61.0936 52.5681C61.274 52.9255 61.4454 53.288 61.6369 53.6394C62.0569 54.4101 62.5017 55.1679 62.9029 55.9481C63.0005 56.138 62.9687 56.3945 63.0118 56.7464C61.9743 56.5937 61.0208 56.8186 60.2674 55.7886C59.1565 54.2698 57.8422 52.9006 56.6342 51.4514C56.3607 51.1234 56.1677 50.7282 55.8223 50.1814C56.5374 49.9722 57.1096 49.8048 57.7584 49.6924C58.8697 50.6896 59.9044 51.6319 60.9787 52.5856C61.0448 52.5897 61.0713 52.5824 61.0974 52.573C61.0969 52.5709 61.0936 52.5681 61.0936 52.5681Z" fill="#444444"/>
<path d="M58.9768 36.1514C58.8625 36.1686 58.8043 36.16 58.703 36.1613C58.5866 35.4462 59.026 35.371 59.5909 35.4149C62.5374 35.6435 65.4848 35.8605 68.4313 36.088C71.5072 36.3254 74.5825 36.5701 77.6581 36.8117C79.777 36.9781 81.8997 37.1091 84.0128 37.3318C84.701 37.4043 85.5312 37.4229 85.7141 38.3641C85.6484 38.3917 85.6726 38.386 85.6967 38.3802C85.7134 38.4231 85.7301 38.466 85.6757 38.6114C85.4961 38.8606 85.3877 39.0073 85.2793 39.1539C85.1265 38.2666 84.5847 37.9382 83.7025 37.8888C80.5766 37.7137 77.4528 37.4981 74.3302 37.2704C70.9766 37.0259 67.6246 36.7599 64.2734 36.4843C62.7799 36.3615 61.2909 36.1854 59.7982 36.0515C59.5473 36.029 59.2882 36.0986 58.9768 36.1514Z" fill="#E7E7E7"/>
<path d="M102.735 56.1466C101.508 56.1558 100.342 56.1558 99.1309 56.1558C99.4218 55.4979 99.776 54.7688 100.066 54.015C100.26 53.5113 100.612 53.4642 101.054 53.5156C102.817 53.7204 104.593 53.8446 106.338 54.1514C107.464 54.3493 108.542 54.8129 109.642 55.1574C109.622 55.2486 109.602 55.3398 109.582 55.431C109.066 55.4975 108.551 55.5763 108.033 55.6282C106.288 55.8031 104.543 55.9685 102.735 56.1466Z" fill="#2E2E2E"/>
<path d="M94.5892 30.6807C94.2651 30.7755 92.9844 30.2975 92.9635 30.0769C92.9107 29.519 93.226 29.2362 93.7195 28.9665C95.4425 28.0248 97.1211 27.0023 98.8238 26.0232C99.4465 25.6652 100.043 25.3951 100.638 26.164C100.992 26.6216 101.516 26.9477 102.151 27.4939C99.386 28.2655 96.9404 29.2988 94.5892 30.6807Z" fill="#1E1E1E"/>
<path d="M96.1499 43.7022C96.1821 44.2755 96.1602 44.8707 96.1558 45.466C96.1549 45.5929 96.2176 45.7202 96.3055 45.8597C96.0637 46.7724 95.7827 47.6782 95.4573 48.5678C95.3954 48.7371 95.1532 48.9633 95.002 48.9575C93.9754 48.9184 92.9509 48.8241 91.7469 48.7342C92.1596 48.1478 92.5244 47.6295 92.8891 47.1112C92.8485 47.0546 92.8079 46.9979 92.7673 46.9412C92.3886 47.1932 91.9692 47.4011 91.6387 47.7055C90.6494 48.6167 89.9667 48.5639 89.0579 47.4167C91.7134 46.7538 93.9776 45.3704 96.1499 43.7022Z" fill="#1B1B1B"/>
<path d="M99.2187 33.2085C100.723 33.4317 102.161 33.6448 103.678 33.8696C102.799 34.8568 102.04 35.7549 101.218 36.592C101.072 36.7407 100.636 36.7205 100.39 36.628C100.037 36.4948 99.7618 36.1352 99.4062 36.0267C97.5767 35.4686 96.5466 34.1708 95.9957 32.3545C97.0316 32.6314 98.0919 32.9149 99.2187 33.2085Z" fill="#181818"/>
<path d="M90.8924 53.2003C91.4864 52.7846 92.0803 52.3688 92.7739 51.9202C92.9821 51.7727 93.0907 51.6582 93.1993 51.5436C93.1718 51.5004 93.1443 51.4572 93.1167 51.414C92.9185 51.5097 92.7202 51.6054 92.522 51.7011C92.2752 51.8135 92.0284 51.926 91.7162 52.0682C91.9415 51.6934 92.1153 51.4043 92.2891 51.1152C91.9333 51.0165 91.581 50.9011 91.2205 50.8247C90.9421 50.7657 90.6539 50.7489 90.3691 50.7251C89.0232 50.6125 89.0231 50.6139 88.7778 49.1129C90.9284 49.3053 93.0499 49.4951 95.064 49.6753C94.8497 50.3778 94.6557 51.014 94.437 51.7314C94.1646 51.9075 93.7714 52.1618 93.3577 52.4778C93.3374 52.5396 93.3583 52.5438 93.3102 52.5009C92.7744 52.8494 92.2866 53.2409 91.7964 53.6232C91.7939 53.614 91.7781 53.6036 91.7781 53.6036C91.6043 53.6686 91.4305 53.7335 91.1997 53.8034C91.1426 53.8082 91.1474 53.8034 91.1474 53.8034C91.0356 53.7276 90.9238 53.6517 90.7888 53.5001C90.8078 53.3497 90.8501 53.275 90.8924 53.2003Z" fill="#F5F5F5"/>
<path d="M77.1177 30.6904C76.208 31.8659 76.425 33.1001 76.9684 34.3532C77.038 34.5134 77.0962 34.6786 77.1034 34.8885C75.798 34.2224 74.5227 33.5502 73.311 32.7783C72.7408 32.415 72.3988 31.8199 72.6087 31.0422C73.0052 31.0422 73.3636 31.0422 73.722 31.0422C74.8369 30.9232 75.9517 30.8041 77.1177 30.6904Z" fill="#303030"/>
<path d="M85.278 39.2216C85.3877 39.0073 85.4961 38.8606 85.6193 38.6512C85.634 38.5884 85.6596 38.6061 85.7108 38.6661C85.8383 38.7592 85.9146 38.7922 85.9909 38.8253C86.3821 40.9162 86.7742 43.007 87.1636 45.0983C87.2215 45.409 87.2667 45.7221 87.2789 46.133C87.3688 46.5776 87.4976 46.9233 87.6264 47.269C87.6283 47.3352 87.6302 47.4015 87.5893 47.5542C87.6801 47.9851 87.8139 48.3296 87.9476 48.674C87.9474 48.7399 87.9473 48.8058 87.91 48.9491C87.9471 49.1167 88.0214 49.2069 88.0958 49.2972C88.0966 49.4101 88.0973 49.5231 88.0671 49.7175C88.1007 49.8911 88.1652 49.9831 88.2297 50.0751C88.4959 51.2771 88.7621 52.4791 89.0134 53.7476C88.7701 53.0765 88.5417 52.3389 88.3134 51.6012C88.2744 51.5992 88.2355 51.5971 88.1965 51.595C88.1965 51.7833 88.1965 51.9716 88.1656 52.2095C88.0668 52.2588 87.999 52.2583 87.9311 52.2579C87.6895 51.0966 87.4529 49.9342 87.2053 48.7742C86.5747 45.8193 85.9373 42.8658 85.3099 39.9103C85.2674 39.7099 85.2863 39.4966 85.278 39.2216Z" fill="#D9D9D9"/>
<path d="M91.2041 30.7323C91.327 30.7818 91.4499 30.8313 91.6227 30.8847C91.1167 31.5852 90.5486 32.2725 90.0132 32.9844C89.8715 33.1727 89.8304 33.4366 89.7003 33.7784C88.2201 34.051 87.0622 35.1987 85.7813 36.1081C84.9187 36.7206 84.9654 36.7864 83.6167 36.5404C86.3634 34.9476 88.652 33.051 90.4016 30.4693C90.7285 30.5461 90.9663 30.6392 91.2041 30.7323Z" fill="#181818"/>
<path d="M89.489 38.3767C88.8936 38.7865 88.2742 39.1661 87.7093 39.6142C87.0994 40.0981 86.8978 40.0255 86.6889 39.2512C86.4934 38.5269 86.2168 37.8245 85.9263 36.9654C86.3391 36.6518 86.9281 36.2043 87.6191 35.7416C88.3104 36.6099 88.8997 37.4933 89.489 38.3767Z" fill="#323232"/>
<path d="M73.2689 20.6124C73.272 21.2384 73.6552 21.5035 74.1834 21.3273C74.8402 21.1082 75.1666 21.3522 75.4278 21.9523C74.0583 22.3848 72.7005 22.8029 71.5374 23.743C69.9655 25.0134 72.5807 30.0687 72 32C72 31.6853 68.7523 27.1721 68.7869 26.8612C68.8266 26.5044 68.9213 26.1537 69.0922 25.7656C69.2761 25.65 69.3927 25.5844 69.4387 25.4859C70.3366 23.5626 71.3996 21.7715 73.2689 20.6124Z" fill="#2E2E2E"/>
<path d="M77.0278 24.4705C77.1317 24.1924 77.2819 23.9222 77.3309 23.6348C77.4822 22.7478 77.5495 22.6982 78.4353 22.8581C79.7772 23.1003 81.1245 23.3128 82.4653 23.5606C82.8092 23.6242 83.1375 23.7729 83.4729 23.8825C83.4725 23.974 83.4721 24.0655 83.4717 24.157C81.2601 24.4258 79.0484 24.6946 76.7657 24.9107C76.6938 24.789 76.6931 24.7199 76.7422 24.6455C76.8706 24.5836 76.9492 24.527 77.0278 24.4705Z" fill="#2A2A2A"/>
<path d="M75.7546 30.0911C75.7593 30.1352 75.764 30.1794 75.7762 30.2897C74.655 30.6046 73.5909 30.3534 72.5537 29.9262C72.0263 29.709 71.8193 29.3503 71.8106 28.7306C71.8007 28.0311 71.5559 27.3349 71.4548 26.5557C71.6882 26.3712 71.8801 26.2683 72.1178 26.1909C72.7795 26.5782 73.3953 26.94 74.0304 27.3132C73.5358 28.0664 73.7862 28.7756 74.1769 29.4095C74.5151 29.9582 75.0437 30.2934 75.7546 30.0911Z" fill="#F5F5F5"/>
<path d="M96.8204 50.7002C97.8189 50.0974 98.8011 50.4225 99.777 50.8407C99.6029 50.8147 99.4269 50.7978 99.2551 50.7613C97.9367 50.4816 97.5323 50.7266 96.8252 51.8808C95.6815 53.7476 95.0159 55.7607 94.7684 57.9647C94.1673 57.9448 93.9267 57.6548 94.0537 57.1293C94.3856 55.7551 94.7505 54.3888 95.1549 52.9318C95.7452 52.1296 96.2828 51.4149 96.8204 50.7002Z" fill="#3C3C3C"/>
<path d="M63.7797 52.7194C64.0617 52.9329 64.3201 53.1942 64.6316 53.3482C65.0387 53.5494 65.4773 53.741 65.9211 53.8031C66.858 53.9344 67.1575 54.4302 66.6083 55.1989C66.1147 55.8899 65.4297 56.3318 64.6335 56.3107C64.1564 55.2116 63.714 54.1925 63.3134 53.0913C63.4966 52.9126 63.6382 52.816 63.7797 52.7194Z" fill="#1E1E1E"/>
<path d="M101.602 24.693C102.08 24.8134 102.54 24.8883 102.912 25.1092C103.669 25.5575 104.378 26.0848 105.106 26.5796C105.096 26.668 105.086 26.7564 105.076 26.8448C104.503 26.9886 103.904 27.069 103.363 27.2914C102.607 27.6027 102.299 27.0528 101.876 26.6659C101.405 26.2356 100.918 25.8237 100.35 25.3271C100.821 25.0849 101.183 24.8992 101.602 24.693Z" fill="#1B1B1B"/>
<path d="M57.8153 49.4776C57.6536 49.4005 57.492 49.3235 57.33 49.2472C57.9236 48.931 60.0222 49.9618 61.0953 51.0976C63.1304 53.2516 64.2667 55.6621 63.6011 56.745C63.0826 55.128 62.3489 53.7341 61.1436 52.5857C61.0936 52.5681 61.0969 52.5709 61.1007 52.5338C61.0991 52.4709 61.0937 52.4452 61.071 52.3698C60.2355 51.0749 59.0783 50.216 57.8153 49.4776Z" fill="#414141"/>
<path d="M75.389 13.3523C75.2922 13.5796 75.1809 13.7937 75.0084 13.9308C72.8238 15.6682 71.2666 17.8305 70.4361 20.5133C70.2112 21.2398 69.8686 21.9299 69.5488 22.628C69.4664 22.4268 69.3355 22.2156 69.3756 22.0445C70.2396 18.3651 71.9415 15.2505 75.389 13.3523Z" fill="#CECECE"/>
<path d="M89.491 41.8307C89.57 42.0933 89.5994 42.3856 89.7362 42.6134C90.4248 43.7607 90.4015 44.9737 90.1064 46.2117C89.9932 46.6863 89.6815 46.9546 89.1 46.945C89.3523 44.9466 88.9647 43.1396 87.7687 41.412C88.2887 41.5457 88.8088 41.6794 89.4031 41.8128C89.4774 41.8125 89.491 41.8307 89.491 41.8307Z" fill="#323232"/>
<path d="M71.5477 33.0743C71.9094 33.1207 72.2712 33.1671 72.7372 33.2196C72.9895 33.3475 73.1376 33.4692 73.2856 33.5909C73.4867 34.3151 73.6878 35.0393 73.9067 35.828C72.9523 35.8878 72.1863 36.0885 71.5822 35.1268C71.2575 34.6099 70.4672 34.3856 69.8766 33.9604C70.3541 33.778 70.8369 33.617 71.3311 33.5652C71.7846 33.5176 71.7996 33.3817 71.5477 33.0743Z" fill="#1E1E1E"/>
<path d="M76.6924 24.6509C76.6931 24.7199 76.6938 24.789 76.6949 24.9098C76.1163 24.9613 75.5318 25.0123 74.9598 24.9489C74.058 24.8491 73.1648 24.6725 72.1011 24.5017C73.1292 23.4537 74.2776 23.1069 75.4481 22.8311C75.5593 22.8049 75.7943 23.0728 75.8868 23.2488C76.0609 23.5805 76.1729 23.9447 76.4014 24.3379C76.5589 24.4705 76.6256 24.5607 76.6924 24.6509Z" fill="#1B1B1B"/>
<path d="M73.3366 33.6167C73.1375 33.4692 72.9894 33.3475 72.8016 33.2153C71.7869 32.1323 71.6351 31.6949 71.6968 30.1435C72.3646 30.4054 73.034 30.668 73.7127 30.9864C73.3637 31.0422 73.0052 31.0422 72.6087 31.0422C72.3988 31.8199 72.7409 32.415 73.311 32.7783C74.5227 33.5502 75.798 34.2224 77.1006 34.9488C77.3707 35.131 77.5873 35.3 77.8226 35.5194C77.7164 35.6019 77.5599 35.699 77.4711 35.6561C76.1047 34.9956 74.7472 34.3169 73.3366 33.6167Z" fill="#CECECE"/>
<path d="M92.7677 36.8131C92.6039 36.5883 92.4338 36.3677 92.2773 36.1379C91.8014 35.4394 91.3724 34.7037 90.8434 34.0485C90.4928 33.6142 90.5899 33.375 90.9847 33.1159C91.2936 32.9133 91.6011 32.7087 91.996 32.4992C92.4039 32.5568 93.0118 32.0621 92.9265 32.9765C92.8713 33.1608 92.8398 33.3205 92.745 33.4194C92.6314 33.5379 92.4637 33.6046 92.3172 33.7465C92.3164 33.8697 92.3179 33.9402 92.2962 34.0667C92.6709 34.2473 93.0688 34.3718 93.5529 34.5232C93.4517 34.6188 93.2795 34.7215 93.1996 34.8729C93.114 35.0351 93.1152 35.2431 93.0807 35.4877C93.2008 35.6595 93.3187 35.7747 93.4395 35.9431C93.4179 36.0624 93.3936 36.1285 93.3173 36.206C93.0994 36.416 92.9336 36.6146 92.7677 36.8131Z" fill="#323232"/>
<path d="M92.3193 33.6937C92.4636 33.6046 92.6313 33.5379 92.7449 33.4194C92.8397 33.3205 92.8712 33.1608 92.9836 32.9477C93.1508 32.8902 93.2651 32.913 93.3794 32.9358C93.6925 33.2138 94.0196 33.4781 94.3103 33.7778C94.3979 33.8681 94.3841 34.0566 94.3383 34.261C94.1225 34.3304 93.9853 34.3388 93.848 34.3471C93.8587 34.4084 93.8694 34.4698 93.8802 34.5311C94.0405 34.4846 94.2009 34.4382 94.3613 34.3917C94.5441 34.5988 94.7269 34.8058 94.9478 35.0561C94.8052 35.134 94.6518 35.2177 94.6764 35.2043C94.963 35.5311 95.27 35.8813 95.5404 36.3031C95.4536 36.3978 95.4231 36.4364 95.4121 36.4904C95.3859 36.4929 95.3597 36.4953 95.2299 36.5107C94.7376 36.451 94.3489 36.3783 93.8978 36.2939C93.816 36.341 93.6264 36.4501 93.4368 36.5593C93.4143 36.4377 93.3918 36.3161 93.3692 36.1945C93.3935 36.1285 93.4178 36.0624 93.4711 35.8943C93.608 35.3818 93.4359 35.2982 93.0784 35.4311C93.1151 35.2431 93.1139 35.0351 93.1995 34.8729C93.2795 34.7215 93.4516 34.6188 93.5529 34.5232C93.0687 34.3718 92.6708 34.2473 92.349 34.0732C92.6667 34.0115 92.9082 33.9995 93.1498 33.9874C93.1462 33.8895 93.1425 33.7916 93.1389 33.6937C92.8657 33.6937 92.5925 33.6937 92.3193 33.6937ZM93.7619 33.7708L93.7891 33.7861C93.7891 33.7861 93.7852 33.7567 93.7619 33.7708Z" fill="#E7E7E7"/>
<path d="M89.5405 41.8654C89.4911 41.8307 89.4775 41.8125 89.4729 41.8092C88.6386 41.0233 88.4768 40.9679 86.9587 40.98C87.445 40.4962 87.961 40.4919 88.4959 40.6245C90.6369 41.1551 91.9441 44.3022 90.8074 46.1888C90.7059 46.3572 90.5529 46.4944 90.3647 46.6331C90.7779 44.9289 90.7926 43.3121 89.5405 41.8654Z" fill="#E7E7E7"/>
<path d="M88.7151 46.3956C88.5864 46.6262 88.4608 46.7902 88.3353 46.9542C88.2533 46.9463 88.1713 46.9383 88.0893 46.9304C87.6966 45.2622 87.3039 43.594 86.9111 41.9259C87.0136 41.8948 87.1161 41.8638 87.2187 41.8328C88.5681 43.0158 88.7485 44.6332 88.7151 46.3956Z" fill="#3C3C3C"/>
<path d="M91.5123 37.78C92.9049 37.7057 94.297 37.6035 95.6907 37.5723C96.1747 37.5615 96.8515 37.4096 96.8957 38.2746C95.1113 38.3713 93.343 38.4672 91.4729 38.5127C91.2987 38.3395 91.2263 38.2165 91.1984 38.0727C91.3326 37.9612 91.4224 37.8706 91.5123 37.78Z" fill="#414141"/>
<path d="M100.16 49.1815C99.8426 49.1857 99.4479 49.2652 99.3312 49.1204C98.9297 48.6227 98.6255 48.0466 98.2843 47.5004C98.3467 47.3979 98.4092 47.2954 98.4716 47.193C99.199 47.3005 99.9737 47.2922 100.635 47.5624C100.988 47.7068 100.666 48.7848 100.16 49.1815Z" fill="#2A2A2A"/>
<path d="M63.7643 52.6665C63.6383 52.816 63.4967 52.9126 63.3097 53.0343C62.392 51.8029 61.4449 50.6188 60.1277 49.7876C60.0804 49.7577 60.0769 49.6583 60.011 49.4738C60.8004 49.4785 61.4581 49.7012 61.9188 50.2237C62.5808 50.9746 63.1436 51.8128 63.7643 52.6665Z" fill="#303030"/>
<path d="M73.2842 20.5536C71.4 21.7715 70.337 23.5626 69.4391 25.4859C69.3931 25.5844 69.2764 25.65 69.135 25.7325C69.2815 25.0998 69.4857 24.4655 69.7035 23.7743C70.5007 22.4759 71.3537 21.2937 72.656 20.5388C72.8228 20.4421 73.0825 20.5055 73.2842 20.5536Z" fill="#CECECE"/>
<path d="M91.494 37.7249C91.4225 37.8706 91.3326 37.9612 91.1553 38.0465C90.7981 37.7809 90.5284 37.5207 90.2587 37.2604C89.8291 36.4576 89.3995 35.6548 88.9479 34.8108C89.5821 34.451 89.8826 34.8738 90.0852 35.1934C90.5913 35.992 91.0175 36.841 91.494 37.7249Z" fill="#2A2A2A"/>
<path d="M78.8165 11.8304C78.8733 11.9144 78.9182 12.0439 78.8723 12.1034C77.6142 13.7341 76.9296 15.6122 76.4296 17.6223C76.4646 16.966 76.4324 16.2378 76.6646 15.6067C77.0709 14.5023 77.6223 13.449 78.1535 12.3947C78.2684 12.1666 78.5548 12.0249 78.8165 11.8304Z" fill="#CECECE"/>
<path d="M96.0387 40.181C94.8165 39.9713 93.5957 39.6913 92.3345 39.3712C93.4248 39.2233 94.5569 39.0263 95.686 39.042C96.3319 39.051 95.9247 39.7421 96.0387 40.181Z" fill="#121212"/>
<path d="M93.3341 52.5295C93.5663 52.4868 93.8019 52.4543 94.1033 52.4195C94.1691 52.4172 94.1723 52.4204 94.1723 52.4204C94.095 53.0339 93.8697 53.4208 93.1821 53.6497C92.4136 53.9056 91.7457 54.4592 91.0268 54.8706C90.6595 55.0809 90.2763 55.2636 89.8169 55.3358C90.2364 54.4848 91.2438 54.3666 91.7931 53.6588C91.778 53.6036 91.7939 53.614 91.8515 53.6504C92.2105 53.5524 92.549 53.4658 92.8023 53.2695C93.0352 53.089 93.1766 52.7904 93.3583 52.5438C93.3583 52.5438 93.3374 52.5396 93.3341 52.5295Z" fill="#6E6E6E"/>
<path d="M93.3173 36.206C93.3918 36.3161 93.4143 36.4377 93.4369 36.5593C93.6265 36.4501 93.8161 36.341 93.8979 36.2939C94.349 36.3783 94.7376 36.451 95.194 36.5272C94.9676 37.1423 95.4476 36.9332 95.709 36.9498C95.9373 36.9644 96.1663 36.9708 96.395 36.9807C96.3894 37.0937 96.3839 37.2067 96.3784 37.3197C95.1005 37.3197 93.8226 37.3197 92.5111 37.3197C92.5797 37.2049 92.665 37.0621 92.759 36.8662C92.9336 36.6146 93.0994 36.4161 93.3173 36.206Z" fill="#1E1E1E"/>
<path d="M89.5427 38.3704C88.8997 37.4933 88.3104 36.6099 87.6665 35.7171C87.8526 35.4989 88.0934 35.2901 88.392 35.0311C88.8924 35.9968 89.357 36.8445 89.7617 37.7197C89.8338 37.8757 89.6578 38.1465 89.5427 38.3704Z" fill="#121212"/>
<path d="M96.1528 33.911C96.3763 34.5447 96.5729 35.1258 96.7695 35.7069C96.6449 35.756 96.5203 35.8051 96.3957 35.8543C95.9245 34.8151 95.4533 33.776 94.9128 32.5841C95.7276 32.7664 95.8233 33.4129 96.1528 33.911Z" fill="#414141"/>
<path d="M96.7678 50.6913C96.2828 51.4149 95.7452 52.1296 95.1648 52.8753C94.82 52.0697 95.3344 51.4595 95.7054 50.8109C95.8507 50.5567 96.0072 50.3089 96.187 50.0113C96.3601 50.2313 96.5376 50.4569 96.7678 50.6913Z" fill="#080909"/>
<path d="M68.7408 54.9025C68.688 55.5644 68.2238 55.5881 67.8364 55.4923C67.6744 55.4523 67.5637 55.0513 67.5042 54.7971C67.4541 54.5831 67.5119 54.3439 67.5215 54.1271C68.3471 53.8881 68.6204 54.0541 68.7408 54.9025Z" fill="#1B1B1B"/>
<path d="M93.394 32.8763C93.2651 32.913 93.1508 32.8902 92.9794 32.8961C93.0118 32.0621 92.4039 32.5568 92.0372 32.4758C91.9708 32.3407 91.95 32.2233 92.0186 32.0552C92.8756 31.9755 93.6432 31.9464 94.4107 31.9173C94.4524 32.1155 94.4941 32.3138 94.5315 32.4919C94.145 32.6037 93.7768 32.7102 93.394 32.8763Z" fill="#121212"/>
<path d="M100.395 42.5322C100.148 42.5847 99.8651 42.5527 99.5939 42.5942C98.5844 42.7485 97.5785 42.9269 96.5055 43.0776C96.5422 42.9021 96.6139 42.6475 96.7522 42.6039C97.9406 42.229 99.1449 42.0221 100.395 42.5322Z" fill="#BDBDBD"/>
<path d="M91.6699 51.2688C90.9874 52.0531 90.1596 51.6159 89.3958 51.5927C89.3021 51.5898 89.2183 51.2589 89.0576 50.9336C90.0515 51.0409 90.866 51.1288 91.6699 51.2688Z" fill="#CECECE"/>
<path d="M93.0891 55.6344C92.7108 55.4602 92.3456 55.2287 91.9517 54.9495C92.4124 54.5244 92.902 54.1469 93.3915 53.7693C93.4388 53.8119 93.4862 53.8545 93.5335 53.8971C93.3898 54.457 93.246 55.017 93.0891 55.6344Z" fill="#A2A2A2"/>
<path d="M97.165 48.9829C96.8971 49.0136 96.6938 49.0437 96.4593 49.0785C96.1119 48.3825 96.7042 48.1322 97.1422 47.6552C97.4954 48.0585 97.8214 48.4306 98.3047 48.9824C97.8095 48.9824 97.5195 48.9824 97.165 48.9829Z" fill="#2A2A2A"/>
<path d="M94.4185 31.8687C93.6431 31.9464 92.8756 31.9755 92.0406 32.0245C92.1002 31.6747 92.2271 31.305 92.3715 30.884C93.1124 31.2215 93.7693 31.5208 94.4185 31.8687Z" fill="#3C3C3C"/>
<path d="M57.814 49.5217C59.0783 50.216 60.2355 51.0749 61.0385 52.3873C60.9834 52.4861 60.9553 52.526 60.939 52.5742C59.9044 51.6319 58.8697 50.6896 57.8203 49.7004C57.8079 49.6243 57.8103 49.595 57.814 49.5217Z" fill="#080909"/>
<path d="M72.0719 26.1654C71.8801 26.2683 71.6882 26.3712 71.4458 26.4967C71.0226 26.1791 70.986 25.8069 71.2356 25.3664C71.5428 24.8242 71.9965 25.1489 72.4407 25.1584C72.4852 25.2718 72.4828 25.3593 72.4415 25.5364C72.2924 25.8058 72.1822 25.9856 72.0719 26.1654Z" fill="#BDBDBD"/>
<path d="M71.4804 33.0679C71.7995 33.3817 71.7845 33.5176 71.331 33.5652C70.8368 33.617 70.3539 33.778 69.8232 33.932C69.6382 33.9794 69.4963 33.9861 69.1578 34.0023C69.8472 33.1933 70.6125 33.0857 71.4804 33.0679Z" fill="#BDBDBD"/>
<path d="M74.8523 36.0285C74.5939 35.6514 74.4002 35.2773 74.1261 34.7483C74.9171 34.7841 75.3353 34.9269 75.4397 35.5017C75.5109 35.8941 75.3125 36.0731 74.8523 36.0285Z" fill="#181818"/>
<path d="M93.8243 56.8729C93.8194 57.1065 93.8194 57.2757 93.8194 57.5431C93.3111 56.8578 93.4752 55.2715 93.9991 54.6902C93.9444 55.3733 93.8868 56.0909 93.8243 56.8729Z" fill="#BDBDBD"/>
<path d="M76.7422 24.6455C76.6256 24.5607 76.5589 24.4705 76.4556 24.3606C76.3609 23.8603 76.3026 23.3798 76.2419 22.8797C76.7236 22.7025 77.0351 22.7134 77.0137 23.3213C77.0019 23.6574 77.0177 23.9945 77.0244 24.4008C76.9492 24.527 76.8706 24.5836 76.7422 24.6455Z" fill="#323232"/>
<path d="M90.4085 39.1009C89.8809 39.3597 89.3275 39.5624 88.7373 39.8014C88.5034 39.9077 88.3063 39.9777 88.1092 40.0478C88.0841 39.9821 88.059 39.9163 88.0338 39.8506C88.7104 39.3269 89.4796 39.0251 90.4085 39.1009Z" fill="#BDBDBD"/>
<path d="M91.2039 30.6701C90.9662 30.6392 90.7284 30.546 90.4369 30.4327C90.3969 29.9936 90.4106 29.5747 90.4293 29.0858C91.1303 29.3341 90.9523 30.0747 91.2039 30.6701Z" fill="#303030"/>
<path d="M90.226 52.5881C89.6364 52.8643 89.3608 52.7207 89.4009 51.9998C89.7968 52.0356 90.1627 52.0688 90.5842 52.107C90.4473 52.3018 90.3595 52.4268 90.226 52.5881Z" fill="#CECECE"/>
<path d="M90.2523 37.3213C90.5284 37.5207 90.7981 37.781 91.1108 38.0674C91.2263 38.2165 91.2987 38.3395 91.4089 38.5005C91.1182 38.3707 90.7553 38.2451 90.4748 38.0179C90.3251 37.8966 90.3176 37.5998 90.2523 37.3213Z" fill="#BDBDBD"/>
<path d="M90.834 53.1938C90.8501 53.275 90.8078 53.3497 90.7512 53.4649C90.3754 53.5291 90.014 53.5529 89.6526 53.5767C89.6494 53.4469 89.6462 53.317 89.6429 53.1872C90.0205 53.1872 90.3981 53.1872 90.834 53.1938Z" fill="#D9D9D9"/>
<path d="M76.7825 12.6352C76.3541 12.9353 75.9258 13.2353 75.4681 13.4658C75.7036 13.1931 75.9684 12.9901 76.3663 12.7798C76.5938 12.7268 76.6882 12.681 76.7825 12.6352Z" fill="#CECECE"/>
<path d="M87.9562 48.6122C87.8138 48.3296 87.6801 47.9852 87.592 47.605C87.7468 47.8963 87.8559 48.2234 87.9562 48.6122Z" fill="#E7E7E7"/>
<path d="M87.6352 47.2069C87.4975 46.9233 87.3687 46.5776 87.2864 46.1966C87.4366 46.4892 87.5404 46.817 87.6352 47.2069Z" fill="#E7E7E7"/>
<path d="M77.2165 12.6918C77.0295 12.7181 76.8851 12.7287 76.7599 12.6793C76.9218 12.5212 77.0645 12.4231 77.2652 12.379C77.3279 12.4611 77.3326 12.4894 77.3374 12.5176C77.3113 12.5704 77.2853 12.6232 77.2165 12.6918Z" fill="#CECECE"/>
<path d="M94.3738 34.3775C94.201 34.4382 94.0406 34.4846 93.8802 34.5311C93.8695 34.4697 93.8587 34.4084 93.848 34.3471C93.9853 34.3388 94.1226 34.3304 94.316 34.3251C94.3721 34.3281 94.3863 34.3632 94.3738 34.3775Z" fill="#D9D9D9"/>
<path d="M92.3467 29.2998C92.3292 29.1816 92.3493 29.0288 92.4229 28.873C92.4458 29.0017 92.415 29.1335 92.3467 29.2998Z" fill="#303030"/>
<path d="M95.435 36.5247C95.4231 36.4364 95.4536 36.3978 95.5394 36.3618C95.5972 36.4227 95.6192 36.4966 95.6412 36.5705C95.5801 36.5666 95.5189 36.5628 95.435 36.5247Z" fill="#1E1E1E"/>
<path d="M88.2528 50.0271C88.1652 49.9831 88.1007 49.8911 88.0747 49.7742C88.1675 49.8259 88.2217 49.9024 88.2528 50.0271Z" fill="#E7E7E7"/>
<path d="M88.1069 49.2477C88.0214 49.2069 87.9471 49.1167 87.9111 49C88.0057 49.0484 88.0618 49.1233 88.1069 49.2477Z" fill="#E7E7E7"/>
<path d="M76.7762 12.6329C76.6882 12.681 76.5938 12.7268 76.4185 12.7719C76.4387 12.7132 76.54 12.6554 76.699 12.616C76.7568 12.6344 76.7698 12.6306 76.7762 12.6329Z" fill="#BDBDBD"/>
<path d="M77.3908 12.5147C77.3326 12.4894 77.3278 12.4611 77.3204 12.39C77.4105 12.3632 77.5031 12.3793 77.5958 12.3953C77.5453 12.4342 77.4948 12.473 77.3908 12.5147Z" fill="#BDBDBD"/>
<path d="M56.9279 49.3638C56.9198 49.3903 56.8971 49.3988 56.8745 49.4073C56.8875 49.3868 56.9004 49.3663 56.9279 49.3638Z" fill="#414141"/>
<path d="M94.1678 52.4157C94.1883 52.4177 94.21 52.4212 94.2022 52.4227C94.1725 52.4206 94.1692 52.4172 94.1678 52.4157Z" fill="#6E6E6E"/>
<path d="M85.9711 38.7451C85.9146 38.7922 85.8383 38.7592 85.7186 38.6795C85.7672 38.6436 85.8593 38.6543 85.9711 38.7451Z" fill="#E7E7E7"/>
<path d="M96.278 43.1188C96.2816 43.1143 96.2679 43.1328 96.2629 43.1363C96.2579 43.1397 96.2744 43.1233 96.278 43.1188Z" fill="#BDBDBD"/>
<path d="M91.1573 53.8244C91.1475 53.8034 91.1427 53.8082 91.1423 53.8043C91.1418 53.8004 91.1335 53.8621 91.1335 53.8621C91.1335 53.8621 91.1671 53.8454 91.1573 53.8244Z" fill="#D9D9D9"/>
<path d="M96.7377 49.8352C96.7465 49.83 96.7288 49.8403 96.7377 49.8352Z" fill="#080909"/>
<path d="M85.693 38.3792C85.6732 38.3864 85.6481 38.3924 85.6578 38.3835C85.6926 38.3686 85.6875 38.3779 85.693 38.3792Z" fill="#D9D9D9"/>
<path d="M74.8189 47.5715C73.9869 47.4679 73.1021 47.5072 72.3365 47.2241C71.408 46.8808 71.0769 45.9038 71.3991 45.1422C71.7107 44.4056 72.7396 43.96 73.6183 44.1949C73.7896 44.2407 73.9459 44.3428 74.1423 44.4937C73.9404 45.078 73.6991 45.5849 73.4715 46.0979C73.1045 46.9252 73.3872 47.3228 74.3068 47.2655C74.4808 47.2547 74.6509 47.1818 74.8221 47.1919C74.8205 47.3547 74.8197 47.4631 74.8189 47.5715Z" fill="#D9D9D9"/>
<path d="M74.8229 47.1376C74.651 47.1818 74.4808 47.2547 74.3068 47.2655C73.3873 47.3228 73.1046 46.9252 73.4716 46.0979C73.6992 45.5849 73.9404 45.078 74.1983 44.5173C74.5472 44.6603 74.8953 44.8258 75.1947 45.0548C75.7195 45.4561 75.6767 45.9628 75.3261 46.5754C75.1243 46.8222 74.9736 46.9799 74.8229 47.1376Z" fill="#080909"/>
<path d="M74.8221 47.1919C74.9736 46.9799 75.1243 46.8222 75.3093 46.6338C75.5102 46.6403 75.6767 46.6776 75.8432 46.7148C75.8741 46.7814 75.905 46.8481 75.9359 46.9147C75.6022 47.1349 75.2685 47.355 74.8769 47.5734C74.8197 47.4631 74.8205 47.3547 74.8221 47.1919Z" fill="#CECECE"/>
<path d="M87.9364 52.3175C87.9989 52.2583 88.0668 52.2588 88.1855 52.2585C88.3482 52.719 88.46 53.1803 88.5718 53.6417C88.5022 53.664 88.4327 53.6864 88.3631 53.7088C88.2227 53.2649 88.0822 52.8211 87.9364 52.3175Z" fill="#CECECE"/>
<path d="M84.9119 20.241C87.0153 21.1796 88.5049 22.8019 90.0382 24.3631C90.3766 24.7076 90.6379 25.1335 90.8996 25.5443C90.9788 25.6688 91.0055 25.9806 90.9452 26.0157C90.4711 26.2914 90.8323 26.5949 90.8883 26.9384C90.6508 26.6152 90.4622 26.1849 90.1539 25.8728C89.297 25.0054 88.3904 24.1871 87.481 23.2603C87.4589 23.1429 87.4593 23.1146 87.4586 23.0301C87.2487 22.7517 87.0398 22.5294 86.8335 22.307C86.8361 22.3069 86.8362 22.3123 86.8362 22.3123C86.4676 21.9127 86.1303 21.4768 85.7216 21.1237C85.3185 20.7754 84.8431 20.5109 84.3698 20.1668C84.3401 20.124 84.3395 20.1248 84.3395 20.1248C84.5133 20.1579 84.6872 20.1909 84.9119 20.241Z" fill="#121212"/>
<path d="M86.9629 22.8053C86.2869 22.5553 85.6113 22.3041 84.9348 22.0554C84.3812 21.8519 83.8266 21.6514 83.1984 21.4226C84.5511 21.1974 85.6885 21.5437 86.7865 22.2899C86.8361 22.3123 86.8361 22.3069 86.8539 22.3517C86.921 22.5155 86.9704 22.6345 87.0054 22.7663C86.991 22.779 86.9629 22.8053 86.9629 22.8053Z" fill="#080909"/>
<path d="M73.7479 20.163C73.8354 20.2492 73.8754 20.3485 73.9153 20.4479C73.8308 20.4621 73.7463 20.4763 73.6619 20.4904C73.6747 20.3857 73.6875 20.281 73.7479 20.163Z" fill="#2E2E2E"/>
<path d="M87.4597 23.0862C87.4593 23.1146 87.4589 23.1429 87.4578 23.2139C87.3524 23.1898 87.2475 23.1231 87.1436 22.9956C87.1444 22.9348 87.1712 22.9089 87.2084 22.9291C87.3169 22.995 87.3883 23.0406 87.4597 23.0862Z" fill="#080909"/>
<path d="M84.3405 20.1236C84.2748 20.1041 84.2088 20.085 84.1427 20.0659C84.1968 20.0638 84.251 20.0617 84.3223 20.0923C84.3395 20.1248 84.3401 20.124 84.3405 20.1236Z" fill="#121212"/>
<path d="M90.8887 27.038C90.913 27.0753 90.9367 27.1659 90.9256 27.2802C90.8899 27.2331 90.8889 27.1622 90.8887 27.038Z" fill="#121212"/>
<path d="M87.131 22.9476C87.074 22.936 87.0364 22.9046 86.9839 22.8357C86.9629 22.8053 86.991 22.779 87.0357 22.7868C87.1188 22.8262 87.1491 22.8643 87.1713 22.9089C87.1713 22.9089 87.1445 22.9348 87.131 22.9476Z" fill="#080909"/>
<path d="M82.7808 26.6764C82.901 26.6301 83.0176 26.5658 83.142 26.5407C83.7422 26.42 84.374 26.1683 84.75 26.9553C85.1219 27.7336 84.9588 28.7366 84.358 29.2419C83.7636 29.7419 82.9999 29.7607 82.3565 29.2911C81.512 28.6749 81.3185 27.6514 81.9711 27.0121C82.0424 27.4352 82.2164 27.7763 82.6213 27.5674C82.7843 27.4833 82.734 26.9858 82.7808 26.6764Z" fill="#080909"/>
<path d="M72.1178 26.1909C72.1822 25.9856 72.2924 25.8058 72.4443 25.602C73.2264 26.0381 73.9604 26.509 74.7095 26.9547C75.1657 27.2262 75.645 27.459 76.1496 27.7282C76.0467 27.7674 75.9165 27.8171 75.943 27.807C75.8936 28.5798 75.8485 29.2837 75.779 30.0393C75.0437 30.2934 74.5151 29.9582 74.1769 29.4095C73.7862 28.7756 73.5358 28.0664 74.0303 27.3132C73.3953 26.94 72.7795 26.5782 72.1178 26.1909Z" fill="#121212"/>
<path d="M81.5208 26.3513C81.1501 26.6397 80.829 26.9014 80.4981 27.1503C79.9837 27.5373 79.4667 27.5759 79.0035 27.1941C79.519 26.7917 80.042 26.4045 80.5412 25.9888C81.2263 25.4184 81.9162 24.873 82.8842 24.9674C83.0517 24.9837 83.214 25.0521 83.3216 25.081C82.7309 25.4975 82.1484 25.9082 81.5208 26.3513Z" fill="#121212"/>
<path d="M82.7264 26.6736C82.734 26.9857 82.7843 27.4833 82.6213 27.5674C82.2164 27.7763 82.0424 27.4351 82.0223 26.978C82.2389 26.8322 82.4554 26.7516 82.7264 26.6736Z" fill="#D9D9D9"/>
<path d="M60.9787 52.5856C60.9554 52.526 60.9835 52.4861 61.0559 52.437C61.0938 52.4452 61.0991 52.4709 61.1012 52.5359C61.0714 52.5824 61.0449 52.5897 60.9787 52.5856Z" fill="#010101"/>
<path d="M93.3103 52.5009C93.1767 52.7904 93.0353 53.089 92.8024 53.2695C92.549 53.4658 92.2106 53.5523 91.8541 53.6595C92.2867 53.2408 92.7744 52.8494 93.3103 52.5009Z" fill="#010101"/>
<path d="M92.5836 51.7531C92.7202 51.6054 92.9185 51.5097 93.1167 51.414C93.1442 51.4572 93.1718 51.5004 93.1993 51.5436C93.0907 51.6582 92.9821 51.7727 92.8247 51.8935C92.7324 51.8681 92.6888 51.8366 92.5836 51.7531Z" fill="#010101"/>
<path d="M92.3171 33.7465C92.5926 33.6937 92.8658 33.6937 93.139 33.6937C93.1426 33.7916 93.1462 33.8895 93.1498 33.9874C92.9083 33.9995 92.6667 34.0115 92.3722 34.0171C92.3178 33.9402 92.3164 33.8698 92.3171 33.7465Z" fill="#D9D9D9"/>
<path d="M93.0806 35.4877C93.4358 35.2982 93.6079 35.3818 93.4683 35.8411C93.3186 35.7747 93.2007 35.6595 93.0806 35.4877Z" fill="#1E1E1E"/>
<path d="M93.7738 33.7638C93.7859 33.7565 93.7899 33.7871 93.7899 33.7871C93.7899 33.7871 93.7617 33.7711 93.7738 33.7638Z" fill="#D9D9D9"/>
<path d="M87.2083 22.9291C87.149 22.8643 87.1187 22.8262 87.05 22.774C86.9704 22.6345 86.921 22.5155 86.8512 22.3517C87.0397 22.5294 87.2486 22.7517 87.4585 23.0301C87.3883 23.0406 87.3169 22.995 87.2083 22.9291Z" fill="#323232"/>
</g>
<defs>
<clipPath id="clip0_1080_683">
<rect width="78" height="78" fill="white" transform="translate(43)"/>
</clipPath>
</defs>
</svg>
